<svg width="20" height="20" viewBox="0 0 20 20" fill="none" xmlns="http://www.w3.org/2000/svg">
<path d="M20 10C20 15.1172 16.1719 19.3359 11.2109 19.9219L11.2109 13.0469H13.9062L14.4922 10H11.2109V8.90625C11.2109 7.30469 11.8359 6.67969 13.4766 6.67969C13.9844 6.67969 14.4141 6.67969 14.6484 6.71875V3.94531C14.1797 3.82812 13.0859 3.71094 12.4609 3.71094C9.14062 3.71094 7.57812 5.27344 7.57813 8.67188V10H5.50781V13.0469H7.57813V19.7266C3.24219 18.6328 0 14.6875 0 10C0 4.49219 4.49219 0 10 0C15.5078 0 20 4.49219 20 10Z" fill="black"/>
</svg>
