<svg width="18" height="18" viewBox="0 0 18 18" fill="none" xmlns="http://www.w3.org/2000/svg">
<path d="M8.75 4.29687C11.25 4.29687 13.2422 6.32812 13.2422 8.78906C13.2422 11.2891 11.2109 13.2812 8.75 13.2812C6.25 13.2812 4.25781 11.25 4.25781 8.78906C4.25781 6.28906 6.28906 4.29688 8.75 4.29687ZM8.75 5.85937C7.10938 5.89844 5.82031 7.1875 5.82031 8.78906C5.85938 10.4297 7.14844 11.7188 8.75 11.7188C10.3906 11.6797 11.6797 10.3906 11.6797 8.78906C11.6406 7.14844 10.3516 5.85937 8.75 5.85937ZM12.3828 4.10156C12.3828 4.6875 12.8516 5.15625 13.4375 5.15625C14.0234 5.15625 14.4922 4.6875 14.4922 4.10156C14.4922 3.51562 14.0234 3.08594 13.4375 3.08594C12.8516 3.08594 12.3828 3.51562 12.3828 4.10156ZM17.4609 5.19531C17.5391 6.64062 17.5391 10.9375 17.4609 12.3828C17.3828 13.7891 17.0703 15.0391 16.0547 16.0547C15 17.1094 13.7891 17.4219 12.3828 17.4609C10.9375 17.5781 6.60156 17.5781 5.15625 17.4609C3.75 17.4219 2.5 17.0703 1.48438 16.0547C0.46875 15.0391 0.117188 13.7891 0.078125 12.3828C0 10.9375 0 6.60156 0.078125 5.15625C0.15625 3.78906 0.46875 2.53906 1.48438 1.52344C2.5 0.46875 3.75 0.15625 5.15625 0.078125C6.60156 0 10.9375 0 12.3828 0.078125C13.7891 0.15625 15 0.46875 16.0547 1.52344C17.0703 2.53906 17.3828 3.78906 17.4609 5.19531ZM15.5859 13.9453C16.0547 12.8125 15.9375 10.0781 15.9375 8.78906C15.9375 7.5 16.0547 4.76562 15.5859 3.63281C15.2734 2.85156 14.6875 2.26562 13.9062 1.95312C12.7734 1.52344 10.0391 1.60156 8.75 1.60156C7.5 1.60156 4.76562 1.52344 3.59375 1.95312C2.85156 2.26562 2.22656 2.85156 1.95313 3.63281C1.48438 4.76562 1.60156 7.5 1.60156 8.78906C1.60156 10.0781 1.48438 12.8125 1.95313 13.9453C2.26563 14.7266 2.85156 15.3125 3.59375 15.625C4.76563 16.0547 7.5 15.9766 8.75 15.9766C10.0391 15.9766 12.7734 16.0547 13.9063 15.625C14.6875 15.3125 15.2734 14.7266 15.5859 13.9453Z" fill="black"/>
</svg>
