<svg width="17" height="18" viewBox="0 0 17 18" fill="none" xmlns="http://www.w3.org/2000/svg">
<g clip-path="url(#clip0_96_127)">
<path d="M0.0695622 15.2709C-0.0960614 15.9989 0.0340699 16.6388 0.459959 17.1907C0.885848 17.7425 1.47735 18.0302 2.23449 18.0537C2.99163 18.0772 3.70143 17.8423 4.36392 17.3492C4.88446 16.95 5.25119 16.4568 5.46413 15.8697C5.6061 15.6114 5.67708 15.2944 5.67708 14.9186L5.67708 6.49986L15.8984 4.56248V9.03607C15.8984 9.38832 15.8392 9.69947 15.7209 9.96953C15.6026 10.2396 15.4429 10.4451 15.2418 10.586C15.0407 10.7269 14.8632 10.8325 14.7094 10.903C14.5556 10.9734 14.4078 11.0204 14.2658 11.0439C14.2421 11.0439 14.2185 11.0439 14.1948 11.0439C14.1712 11.0439 14.1593 11.0439 14.1593 11.0439L14.0884 11.0791H14.1238C13.5796 11.1731 13.0828 11.3844 12.6332 11.7132C11.9707 12.2298 11.5567 12.858 11.3911 13.5977C11.2254 14.3374 11.3556 14.9774 11.7815 15.5175C12.2074 16.0576 12.8048 16.3453 13.5737 16.3805C14.3427 16.4157 15.0584 16.1868 15.7209 15.6936C16.3834 15.177 16.7975 14.5429 16.9631 13.7914C17.0104 13.6036 17.0341 13.4157 17.0341 13.2278V2.27286C17.0341 2.24937 17.0282 2.21415 17.0163 2.16718C17.0045 2.12021 16.9986 2.09086 16.9986 2.07912C16.9986 2.06738 17.0045 2.04976 17.0163 2.02628C17.0282 2.0028 17.0341 1.99105 17.0341 1.99105V0.863853C17.0341 0.535084 16.9217 0.294382 16.6969 0.141739C16.4721 -0.0109034 16.206 -0.0402574 15.8984 0.0536769L5.67708 1.99105C5.36949 2.08499 5.10331 2.27285 4.87854 2.55466C4.65376 2.83646 4.54138 3.14174 4.54138 3.47051V4.59771C4.54138 4.62119 4.54138 4.63293 4.54138 4.63293C4.54138 4.63293 4.54138 4.64467 4.54138 4.66816C4.54138 4.69164 4.54138 4.71513 4.54138 4.73861L4.54138 10.6916C4.54138 11.0674 4.48223 11.3903 4.36392 11.6603C4.24562 11.9304 4.08592 12.1359 3.8848 12.2768C3.68369 12.4177 3.50624 12.5175 3.35244 12.5762C3.19865 12.6349 3.05077 12.676 2.90881 12.6995C2.90881 12.6995 2.89698 12.6995 2.87332 12.6995C2.84966 12.6995 2.83783 12.6995 2.83783 12.6995L2.73136 12.7347H2.76685C2.22266 12.8286 1.73762 13.04 1.31173 13.3687C0.649239 13.8854 0.235186 14.5194 0.0695622 15.2709Z" fill="black"/>
</g>
<defs>
<clipPath id="clip0_96_127">
<rect width="17" height="18" fill="white"/>
</clipPath>
</defs>
</svg>
