<svg width="26" height="12" viewBox="0 0 26 12" fill="none" xmlns="http://www.w3.org/2000/svg">
<path d="M25.1172 7.89062C25.0781 8.78906 24.6875 9.60937 24.0234 10.2344C23.3594 10.8594 22.5 11.2109 21.6016 11.1719L13.0859 11.1719C12.8906 11.1719 12.6953 11.0938 12.5781 10.9766C12.4219 10.8203 12.3438 10.6641 12.3438 10.4688L12.3438 1.28906C12.3438 1.13281 12.3828 0.976562 12.5 0.859375C12.5781 0.703125 12.6953 0.625 12.8516 0.546875C12.8516 0.546875 13.6328 0 15.2734 0C16.2891 0 17.2656 0.273437 18.125 0.78125C18.7891 1.21094 19.375 1.71875 19.8438 2.34375C20.3125 3.00781 20.625 3.71094 20.7812 4.49219C21.0938 4.41406 21.4062 4.375 21.7188 4.375C22.1484 4.375 22.6172 4.45312 23.0469 4.60937C23.4766 4.80469 23.8281 5.07812 24.1406 5.39062C24.4922 5.70312 24.7266 6.09375 24.8828 6.52344C25.0781 6.95312 25.1562 7.42187 25.1172 7.89062ZM11.2891 1.875C11.2891 1.83594 11.2891 1.79687 11.2891 1.75781C11.2891 1.71875 11.25 1.67969 11.2109 1.67969C11.2109 1.64062 11.1719 1.60156 11.1328 1.60156C11.0547 1.5625 10.9766 1.5625 10.8984 1.60156C10.8594 1.60156 10.8594 1.64062 10.8203 1.67969C10.7812 1.67969 10.7812 1.71875 10.7422 1.75781C10.7422 1.79687 10.7422 1.83594 10.7422 1.875C10.5078 4.96094 10.3125 7.85156 10.7422 10.9375C10.7422 10.9766 10.7813 11.0547 10.8203 11.0938C10.9375 11.2109 11.0938 11.2109 11.2109 11.0938C11.25 11.0547 11.2891 10.9766 11.2891 10.9375C11.7188 7.8125 11.5625 5 11.2891 1.875ZM9.57031 2.92969C9.57031 2.89062 9.53125 2.8125 9.49219 2.77344C9.45312 2.73437 9.375 2.69531 9.29688 2.69531C9.21875 2.69531 9.14062 2.73437 9.10156 2.77344C9.02344 2.8125 9.02344 2.89062 8.98438 2.92969C8.71094 5.58594 8.71094 8.28125 8.98438 10.9375C9.02344 11.0156 9.0625 11.0547 9.10156 11.0938C9.14063 11.1328 9.21875 11.1719 9.29688 11.1719C9.33594 11.1719 9.41406 11.1719 9.49219 11.0938C9.53125 11.0547 9.57031 11.0156 9.57031 10.9375C9.92188 8.28125 9.92188 5.58594 9.57031 2.92969ZM7.85156 2.69531C7.85156 2.61719 7.8125 2.53906 7.77344 2.5C7.69531 2.46094 7.65625 2.42187 7.57812 2.42187C7.5 2.42187 7.42188 2.46094 7.38281 2.5C7.34375 2.53906 7.30469 2.61719 7.30469 2.69531C7.03125 5.50781 6.91406 8.125 7.30469 10.9375C7.30469 11.0156 7.30469 11.0547 7.38281 11.1328C7.42188 11.1719 7.5 11.2109 7.57813 11.2109C7.65625 11.2109 7.73438 11.1719 7.77344 11.1328C7.8125 11.0547 7.85156 11.0156 7.85156 10.9375C8.24219 8.08594 8.125 5.50781 7.85156 2.69531ZM6.13281 3.47656C6.13281 3.39844 6.09375 3.32031 6.05469 3.28125C6.01563 3.24219 5.9375 3.20312 5.85938 3.20312C5.78125 3.20312 5.70313 3.24219 5.625 3.28125C5.58594 3.32031 5.54688 3.39844 5.54688 3.47656C5.23438 5.9375 5.23438 8.47656 5.54688 10.9375C5.58594 11.0156 5.58594 11.0547 5.66406 11.1328C5.70313 11.1719 5.78125 11.1719 5.85938 11.1719C5.89844 11.1719 5.97656 11.1719 6.01563 11.1328C6.09375 11.0547 6.13281 11.0156 6.13281 10.9375C6.48438 8.47656 6.48438 5.9375 6.13281 3.47656ZM4.375 5.35156C4.375 5.27344 4.375 5.19531 4.29688 5.15625C4.25781 5.07812 4.17969 5.07812 4.10156 5.07812C4.02344 5.07812 3.94531 5.07812 3.90625 5.15625C3.86719 5.19531 3.82813 5.27344 3.82813 5.35156C3.4375 7.26562 3.63281 9.02344 3.82813 10.9375C3.86719 11.0156 3.90625 11.0547 3.94531 11.1328C3.98438 11.1719 4.0625 11.1719 4.10156 11.1719C4.17969 11.1719 4.21875 11.1719 4.29688 11.1328C4.33594 11.0547 4.375 11.0156 4.375 10.9375C4.64844 8.98438 4.84375 7.26562 4.375 5.35156ZM2.65625 5.03906C2.65625 4.96094 2.61719 4.92188 2.57813 4.84375C2.53906 4.80469 2.46094 4.80469 2.38281 4.80469C2.30469 4.80469 2.22656 4.80469 2.1875 4.84375C2.14844 4.92188 2.10938 4.96094 2.10938 5.03906C1.71875 6.99219 1.83594 8.75 2.10938 10.7031C2.14844 10.9766 2.61719 10.9766 2.65625 10.7031C2.92969 8.71094 3.08594 7.03125 2.69531 5.03906H2.65625ZM0.9375 6.01562C0.9375 5.9375 0.898438 5.85938 0.820313 5.82031C0.78125 5.78125 0.703125 5.74219 0.625 5.74219C0.585938 5.74219 0.507813 5.78125 0.429688 5.82031C0.390625 5.85938 0.351563 5.9375 0.351563 6.01562C0 7.34375 0.117188 8.39844 0.390625 9.72656C0.390625 9.80469 0.429688 9.88281 0.46875 9.92188C0.507813 9.96094 0.585938 9.96094 0.664063 9.96094C0.703125 9.96094 0.78125 9.96094 0.820313 9.92188C0.898438 9.84375 0.898438 9.80469 0.9375 9.72656C1.21094 8.39844 1.36719 7.30469 0.9375 6.01562Z" fill="black"/>
</svg>
