<svg width="20" height="20" viewBox="0 0 20 20" fill="none" xmlns="http://www.w3.org/2000/svg">
<path d="M9.6875 0C15.0391 0 19.375 4.33594 19.375 9.6875C19.375 15.0391 15.0391 19.375 9.6875 19.375C4.33594 19.375 0 15.0391 0 9.6875C0 4.33594 4.33594 0 9.6875 0ZM13.6328 14.2578C13.9453 14.2578 14.2188 14.0234 14.2188 13.6719C14.2188 13.2812 14.0625 13.1641 13.8281 13.0078C11.0547 11.3281 7.77344 11.2891 4.57031 11.9922C4.29688 12.0312 4.0625 12.2266 4.0625 12.6562C4.0625 12.9688 4.29688 13.2422 4.64844 13.2422C4.76563 13.2422 4.96094 13.2031 5.11719 13.1641C7.92969 12.5781 10.7812 12.6562 13.2031 14.1016C13.3594 14.2188 13.4766 14.2578 13.6328 14.2578ZM14.6875 11.6797C15.1172 11.6797 15.4297 11.3672 15.4297 10.9375C15.4297 10.5859 15.3125 10.3516 15 10.1562C13.0469 9.02344 10.625 8.39844 8.08594 8.39844C6.44531 8.39844 5.35156 8.59375 4.25781 8.90625C3.86719 9.02344 3.63281 9.29688 3.63281 9.72656C3.63281 10.1562 3.98438 10.4688 4.41406 10.4688C4.57031 10.4688 4.6875 10.4297 4.88281 10.3906C8.125 9.49219 11.7578 10.0781 14.1797 11.5234C14.3359 11.6016 14.4531 11.6797 14.6875 11.6797ZM15.8984 8.71094C16.3672 8.71094 16.7969 8.32031 16.7969 7.8125C16.7969 7.34375 16.6016 7.10937 16.2891 6.91406C14.1016 5.66406 11.1328 5.03906 8.28125 5.03906C6.60156 5.03906 5.03906 5.23438 3.67188 5.66406C3.32031 5.74219 3.00781 6.05469 3.00781 6.60156C3.00781 7.10938 3.39844 7.5 3.90625 7.5C4.10156 7.5 4.25781 7.46094 4.41406 7.42188C7.61719 6.52344 12.6172 6.91406 15.3906 8.55469C15.5469 8.67187 15.6641 8.71094 15.8984 8.71094Z" fill="black"/>
</svg>
