<svg width="17" height="19" viewBox="0 0 17 19" fill="none" xmlns="http://www.w3.org/2000/svg">
<g clip-path="url(#clip0_96_106)">
<path d="M0.0693019 15.3285C-0.095702 16.0592 0.0339424 16.7015 0.458238 17.2555C0.882534 17.8094 1.47183 18.0982 2.22613 18.1217C2.98043 18.1453 3.68758 17.9096 4.3476 17.4146C4.86618 17.0138 5.23154 16.5188 5.44369 15.9295C5.58512 15.6703 5.65584 15.352 5.65584 14.9749V6.52436L15.8389 4.57968V9.07012C15.8389 9.42371 15.78 9.73603 15.6621 10.0071C15.5442 10.2782 15.3851 10.4844 15.1848 10.6259C14.9844 10.7673 14.8076 10.8734 14.6544 10.9441C14.5012 11.0148 14.3539 11.0619 14.2124 11.0855C14.1889 11.0855 14.1653 11.0855 14.1417 11.0855C14.1181 11.0855 14.1064 11.0855 14.1064 11.0855L14.0356 11.1209H14.071C13.5288 11.2152 13.0338 11.4273 12.586 11.7573C11.926 12.2759 11.5135 12.9064 11.3484 13.649C11.1834 14.3915 11.3131 15.0338 11.7374 15.576C12.1617 16.1181 12.7569 16.4069 13.523 16.4422C14.289 16.4776 15.0021 16.2478 15.6621 15.7528C16.3221 15.2342 16.7346 14.5977 16.8996 13.8434C16.9468 13.6549 16.9703 13.4663 16.9703 13.2777V2.28142C16.9703 2.25785 16.9644 2.22249 16.9527 2.17535C16.9409 2.1282 16.935 2.09874 16.935 2.08695C16.935 2.07517 16.9409 2.05749 16.9527 2.03392C16.9644 2.01035 16.9703 1.99856 16.9703 1.99856V0.867109C16.9703 0.537101 16.8584 0.295492 16.6344 0.142274C16.4105 -0.0109445 16.1453 -0.0404091 15.8389 0.0538792L5.65584 1.99856C5.3494 2.09285 5.08422 2.28142 4.86029 2.56428C4.63635 2.84715 4.52439 3.15358 4.52439 3.48359V4.61504C4.52439 4.63861 4.52439 4.6504 4.52439 4.6504C4.52439 4.6504 4.52439 4.66218 4.52439 4.68575C4.52439 4.70933 4.52439 4.7329 4.52439 4.75647V10.7319C4.52439 11.1091 4.46546 11.4332 4.3476 11.7043C4.22974 11.9754 4.07063 12.1816 3.87027 12.323C3.66991 12.4645 3.49312 12.5647 3.3399 12.6236C3.18668 12.6825 3.03936 12.7238 2.89793 12.7473C2.89793 12.7473 2.88614 12.7473 2.86257 12.7473C2.839 12.7473 2.82721 12.7473 2.82721 12.7473L2.72114 12.7827H2.7565C2.21434 12.877 1.73112 13.0891 1.30683 13.4191C0.64681 13.9377 0.234306 14.5742 0.0693019 15.3285Z" fill="white"/>
</g>
<defs>
<clipPath id="clip0_96_106">
<rect width="16.9364" height="18.0678" fill="white"/>
</clipPath>
</defs>
</svg>
