<svg width="20" height="19" viewBox="0 0 20 19" fill="none" xmlns="http://www.w3.org/2000/svg">
<path d="M18.9844 13.6719V13.6328C19.1406 14.0625 19.0234 14.4922 18.6719 14.8828C18.5156 15.0781 18.3594 15.1953 18.1641 15.3125C17.7734 15.5078 17.3828 15.6641 16.9531 15.7812C16.875 15.7812 16.7969 15.8203 16.7188 15.8594C16.6016 15.9766 16.6016 16.1328 16.4844 16.3672C16.3672 16.5625 16.25 16.7188 16.0938 16.7969C15.7031 17.0703 15.2344 17.1094 14.7656 17.1094C14.375 17.1484 13.8672 17.1484 13.3203 17.3438C13.125 17.4219 12.8906 17.5391 12.6172 17.7344C11.9531 18.125 11.0547 18.6719 9.57031 18.6719C8.08594 18.6719 7.1875 18.125 6.52344 17.7344C6.25 17.5391 6.01562 17.4219 5.78125 17.3438C5.23438 17.1484 4.76562 17.1484 4.33594 17.1094C3.90625 17.1094 3.4375 17.0703 3.04688 16.7969C2.92969 16.7188 2.8125 16.6016 2.69531 16.4453C2.53906 16.1719 2.53906 16.0156 2.38281 15.8984C2.34375 15.8203 2.26562 15.7812 2.14844 15.7812C1.75781 15.6641 1.36719 15.5078 0.976562 15.3125C0.78125 15.1953 0.625 15.0781 0.507812 14.9219C0.117188 14.5312 0 14.0625 0.15625 13.6719C0.351562 13.125 0.820312 12.9688 1.28906 12.6953C2.14844 12.2266 2.8125 11.6797 3.32031 10.9766C3.4375 10.7812 3.55469 10.5859 3.63281 10.3516C3.71094 10.2344 3.71094 10.1562 3.67188 10.0781C3.63281 10.0391 3.59375 10 3.55469 9.96094C3.39844 9.88281 3.24219 9.76562 3.125 9.6875C2.92969 9.57031 2.8125 9.49219 2.69531 9.41406C2.34375 9.14062 2.07031 8.90625 1.91406 8.59375C1.79688 8.35938 1.75781 8.125 1.71875 7.89062C1.71875 7.65625 1.75781 7.42188 1.83594 7.22656C2.07031 6.5625 2.69531 6.17188 3.39844 6.17188C3.55469 6.17188 3.71094 6.21094 3.86719 6.21094C3.90625 6.25 3.94531 6.25 3.98438 6.25C3.98438 5.82031 3.98438 5.35156 4.02344 4.92188C4.17969 3.32031 4.72656 2.46094 5.3125 1.79688C5.66406 1.40625 6.13281 1.05469 6.60156 0.78125C7.5 0.273438 8.47656 0 9.57031 0C10.6641 0 11.6797 0.273438 12.5391 0.78125C13.0469 1.05469 13.4766 1.40625 13.8281 1.79688C14.4141 2.46094 15 3.32031 15.1172 4.88281C15.1562 5.35156 15.1562 5.82031 15.1562 6.25C15.1953 6.25 15.2344 6.21094 15.2734 6.21094C15.4297 6.17188 15.5859 6.17188 15.7422 6.17188C16.4844 6.17188 17.0703 6.5625 17.3047 7.1875C17.4219 7.42188 17.4609 7.65625 17.4219 7.89062C17.4219 8.125 17.3438 8.35938 17.2266 8.59375C17.0703 8.86719 16.8359 9.14062 16.4453 9.41406C16.3672 9.49219 16.2109 9.57031 16.0156 9.6875C15.8984 9.76562 15.7422 9.88281 15.5859 9.96094C15.5469 10 15.5078 10.0391 15.4688 10.0781C15.4688 10.1562 15.4688 10.2344 15.5078 10.3516C15.5859 10.5469 15.7031 10.7812 15.8594 10.9766C16.3281 11.6797 17.0312 12.2656 17.9297 12.7344C18.0078 12.7734 18.0859 12.8125 18.1641 12.8906C18.2031 12.8906 18.2812 12.9297 18.3203 12.9297C18.5938 13.125 18.8672 13.2812 18.9844 13.6719ZM17.6562 14.375C18.1641 14.0625 17.8906 13.9062 17.6953 13.8281C14.7656 12.3828 14.2969 10.1953 14.2969 10.0391C14.2578 9.84375 14.2188 9.6875 14.4531 9.49219C14.6484 9.29688 15.5859 8.71094 15.8594 8.55469C16.2891 8.24219 16.4453 7.92969 16.3281 7.57812C16.2109 7.34375 15.9766 7.22656 15.7422 7.22656C15.6641 7.22656 15.5859 7.22656 15.5078 7.26562C15.0391 7.34375 14.5703 7.57812 14.3359 7.65625C14.2969 7.65625 14.2578 7.65625 14.2188 7.65625C14.0625 7.65625 14.0234 7.61719 14.0234 7.42188C14.0625 6.91406 14.1406 5.9375 14.0625 5C13.9453 3.71094 13.5547 3.08594 13.0469 2.5C12.8125 2.22656 11.7188 1.05469 9.57031 1.05469C7.46094 1.05469 6.36719 2.26562 6.09375 2.5C5.625 3.08594 5.19531 3.71094 5.07812 5C5 5.9375 5.07812 6.95312 5.11719 7.46094C5.11719 7.61719 5.07812 7.69531 4.92188 7.69531C4.92188 7.69531 4.88281 7.65625 4.84375 7.65625C4.57031 7.61719 4.14062 7.38281 3.67188 7.26562C3.59375 7.26562 3.51562 7.22656 3.4375 7.22656C3.16406 7.22656 2.92969 7.34375 2.85156 7.57812C2.69531 7.96875 2.89062 8.24219 3.32031 8.55469C3.55469 8.71094 4.49219 9.29688 4.72656 9.49219C4.92188 9.6875 4.88281 9.84375 4.88281 10.0391C4.84375 10.1953 4.375 12.4219 1.44531 13.8281C1.28906 13.9062 0.976562 14.1016 1.48438 14.375C2.30469 14.8047 2.85156 14.7656 3.28125 15.0391C3.63281 15.2734 3.39844 15.7422 3.67188 15.9375C3.98438 16.1719 4.92188 15.9375 6.13281 16.3281C7.14844 16.6797 7.77344 17.6172 9.57031 17.6172C11.3672 17.6172 12.0312 16.6797 13.0078 16.3281C14.2188 15.9375 15.1562 16.1719 15.5078 15.9375C15.7422 15.7812 15.5469 15.2734 15.8984 15.0391C16.3281 14.7656 16.8359 14.8047 17.6562 14.375Z" fill="white"/>
</svg>
