<svg width="18" height="21" viewBox="0 0 18 21" fill="none" xmlns="http://www.w3.org/2000/svg">
<path d="M17.6172 8.20312C15.8984 8.20312 14.2188 7.65625 12.8125 6.67969V13.6328C12.8125 14.9609 12.4219 16.2109 11.6797 17.2656C10.9375 18.3203 9.88281 19.1406 8.67188 19.6094C7.46094 20.0391 6.13281 20.1172 4.88281 19.8047C3.63281 19.4922 2.5 18.7891 1.67969 17.8125C0.820312 16.8359 0.273438 15.625 0.15625 14.3359C0 13.0469 0.234375 11.7578 0.859375 10.625C1.48438 9.49219 2.42188 8.55469 3.59375 7.96875C4.72656 7.38281 6.05469 7.1875 7.30469 7.34375V10.8594C6.71875 10.7031 6.09375 10.7031 5.50781 10.8984C4.96094 11.0938 4.45312 11.4453 4.0625 11.9531C3.71094 12.4609 3.51562 13.0469 3.55469 13.6719C3.55469 14.2969 3.75 14.8828 4.10156 15.3906C4.45312 15.8594 4.96094 16.25 5.54688 16.4062C6.13281 16.6016 6.79688 16.6016 7.34375 16.4062C7.92969 16.2109 8.4375 15.8594 8.82812 15.3516C9.17969 14.8828 9.375 14.2578 9.375 13.6328V0H12.8125C12.8125 0.273438 12.8125 0.585938 12.8906 0.859375C13.0078 1.52344 13.2422 2.10938 13.5938 2.65625C13.9844 3.20312 14.4531 3.67188 15 4.02344C15.7812 4.53125 16.6797 4.80469 17.6172 4.80469V8.20312Z" fill="white"/>
</svg>
