<svg width="22" height="15" viewBox="0 0 22 15" fill="none" xmlns="http://www.w3.org/2000/svg">
<path d="M20.8984 2.34375C21.3281 4.02344 21.3281 7.5 21.3281 7.5C21.3281 7.5 21.3281 11.0156 20.8984 12.6953C20.6641 13.5938 19.9219 14.2969 19.0234 14.5703C17.3438 15 10.6641 15 10.6641 15C10.6641 15 3.98438 15 2.34375 14.5703C1.40625 14.2969 0.703125 13.5938 0.429688 12.6953C0 11.0156 0 7.5 0 7.5C0 7.5 0 4.02344 0.429688 2.34375C0.703125 1.40625 1.40625 0.703125 2.34375 0.46875C3.98438 0 10.6641 0 10.6641 0C10.6641 0 17.3438 0 18.9844 0.46875C19.9219 0.703125 20.6641 1.40625 20.8984 2.34375ZM8.47656 10.7031L14.0625 7.5L8.47656 4.33594V10.7031Z" fill="white"/>
</svg>
